<svg width="20" height="26" viewBox="0 0 20 26" fill="none" xmlns="http://www.w3.org/2000/svg">
<path d="M10 0.5C10.3315 0.5 10.6495 0.631696 10.8839 0.866116C11.1183 1.10054 11.25 1.41848 11.25 1.75V14.9825L14.1163 12.1163C14.352 11.8886 14.6678 11.7626 14.9955 11.7654C15.3232 11.7683 15.6368 11.8997 15.8685 12.1315C16.1003 12.3632 16.2317 12.6768 16.2346 13.0045C16.2374 13.3322 16.1114 13.648 15.8838 13.8837L10.8837 18.8838C10.6493 19.1181 10.3315 19.2497 10 19.2497C9.66854 19.2497 9.35066 19.1181 9.11625 18.8838L4.11625 13.8837C3.99686 13.7684 3.90163 13.6305 3.83612 13.478C3.77061 13.3255 3.73613 13.1615 3.73469 12.9955C3.73324 12.8295 3.76487 12.6649 3.82772 12.5113C3.89057 12.3577 3.98339 12.2181 4.10076 12.1008C4.21812 11.9834 4.35769 11.8906 4.51131 11.8277C4.66493 11.7649 4.82953 11.7332 4.9955 11.7347C5.16148 11.7361 5.3255 11.7706 5.47801 11.8361C5.63051 11.9016 5.76844 11.9969 5.88375 12.1163L8.75 14.9825V1.75C8.75 1.41848 8.8817 1.10054 9.11612 0.866116C9.35054 0.631696 9.66848 0.5 10 0.5ZM1.25 19.25C1.58152 19.25 1.89946 19.3817 2.13388 19.6161C2.3683 19.8505 2.5 20.1685 2.5 20.5V23H17.5V20.5C17.5 20.1685 17.6317 19.8505 17.8661 19.6161C18.1005 19.3817 18.4185 19.25 18.75 19.25C19.0815 19.25 19.3995 19.3817 19.6339 19.6161C19.8683 19.8505 20 20.1685 20 20.5V23C20 23.663 19.7366 24.2989 19.2678 24.7678C18.7989 25.2366 18.163 25.5 17.5 25.5H2.5C1.83696 25.5 1.20107 25.2366 0.732233 24.7678C0.263392 24.2989 0 23.663 0 23V20.5C0 20.1685 0.131696 19.8505 0.366117 19.6161C0.600537 19.3817 0.918479 19.25 1.25 19.25Z" fill="#C02E17"/>
</svg>
