<svg width="360" height="800" viewBox="0 0 360 800" fill="none" xmlns="http://www.w3.org/2000/svg">
<g clip-path="url(#clip0_1079_1215)">
<rect width="360" height="800" fill="#FD9D8E"/>
<circle cx="211" cy="290" r="425" fill="url(#paint0_linear_1079_1215)"/>
<circle opacity="0.4" cx="347" cy="680" r="238" fill="#C02E17"/>
<circle opacity="0.4" cx="46" cy="203" r="238" fill="#C02E17"/>
<circle opacity="0.4" cx="180" cy="-101" r="277" fill="#C02E17"/>
<circle opacity="0.2" cx="390" cy="143" r="285" fill="#C02E17"/>
<path d="M117.075 361C117.075 363.083 117.358 364.95 117.925 366.6C118.492 368.25 119.3 369.65 120.35 370.8C121.4 371.933 122.667 372.808 124.15 373.425C125.633 374.025 127.292 374.325 129.125 374.325C130.975 374.325 132.642 374.025 134.125 373.425C135.608 372.808 136.867 371.933 137.9 370.8C138.95 369.65 139.75 368.25 140.3 366.6C140.867 364.95 141.15 363.083 141.15 361C141.15 358.933 140.867 357.075 140.3 355.425C139.75 353.775 138.95 352.375 137.9 351.225C136.867 350.075 135.608 349.192 134.125 348.575C132.642 347.958 130.975 347.65 129.125 347.65C127.292 347.65 125.633 347.958 124.15 348.575C122.667 349.192 121.4 350.075 120.35 351.225C119.3 352.375 118.492 353.775 117.925 355.425C117.358 357.075 117.075 358.933 117.075 361ZM148.9 386.2H144.1C143.383 386.2 142.75 386.1 142.2 385.9C141.65 385.717 141.142 385.375 140.675 384.875L134.925 378.55C133.125 379.1 131.192 379.375 129.125 379.375C126.442 379.375 123.992 378.917 121.775 378C119.575 377.083 117.683 375.817 116.1 374.2C114.517 372.567 113.292 370.625 112.425 368.375C111.558 366.125 111.125 363.667 111.125 361C111.125 358.333 111.558 355.875 112.425 353.625C113.292 351.375 114.517 349.433 116.1 347.8C117.683 346.167 119.575 344.892 121.775 343.975C123.992 343.058 126.442 342.6 129.125 342.6C131.825 342.6 134.275 343.058 136.475 343.975C138.692 344.892 140.583 346.167 142.15 347.8C143.733 349.433 144.958 351.375 145.825 353.625C146.692 355.875 147.125 358.333 147.125 361C147.125 362.65 146.958 364.225 146.625 365.725C146.292 367.208 145.808 368.6 145.175 369.9C144.542 371.183 143.767 372.367 142.85 373.45C141.933 374.517 140.892 375.45 139.725 376.25L148.9 386.2ZM173.668 353.5V379H170.418C169.701 379 169.243 378.658 169.043 377.975L168.643 375.6C168.109 376.167 167.543 376.683 166.943 377.15C166.359 377.617 165.734 378.017 165.068 378.35C164.401 378.683 163.684 378.942 162.918 379.125C162.168 379.308 161.359 379.4 160.493 379.4C159.093 379.4 157.859 379.167 156.793 378.7C155.726 378.233 154.826 377.575 154.093 376.725C153.376 375.875 152.834 374.858 152.468 373.675C152.101 372.475 151.918 371.158 151.918 369.725V353.5H157.293V369.725C157.293 371.442 157.684 372.775 158.468 373.725C159.268 374.675 160.476 375.15 162.093 375.15C163.276 375.15 164.376 374.883 165.393 374.35C166.426 373.8 167.393 373.05 168.293 372.1V353.5H173.668ZM191.22 353.1C193.103 353.1 194.803 353.408 196.32 354.025C197.853 354.642 199.153 355.517 200.22 356.65C201.303 357.783 202.137 359.158 202.72 360.775C203.303 362.392 203.595 364.208 203.595 366.225C203.595 368.242 203.303 370.058 202.72 371.675C202.137 373.292 201.303 374.675 200.22 375.825C199.153 376.958 197.853 377.833 196.32 378.45C194.803 379.067 193.103 379.375 191.22 379.375C189.32 379.375 187.603 379.067 186.07 378.45C184.553 377.833 183.253 376.958 182.17 375.825C181.087 374.675 180.253 373.292 179.67 371.675C179.087 370.058 178.795 368.242 178.795 366.225C178.795 364.208 179.087 362.392 179.67 360.775C180.253 359.158 181.087 357.783 182.17 356.65C183.253 355.517 184.553 354.642 186.07 354.025C187.603 353.408 189.32 353.1 191.22 353.1ZM191.22 375.175C193.52 375.175 195.228 374.408 196.345 372.875C197.478 371.325 198.045 369.117 198.045 366.25C198.045 363.383 197.478 361.175 196.345 359.625C195.228 358.058 193.52 357.275 191.22 357.275C188.887 357.275 187.153 358.058 186.02 359.625C184.887 361.175 184.32 363.383 184.32 366.25C184.32 369.117 184.887 371.325 186.02 372.875C187.153 374.408 188.887 375.175 191.22 375.175ZM216.446 379.4C214.329 379.4 212.696 378.808 211.546 377.625C210.413 376.425 209.846 374.742 209.846 372.575V357.725H207.046C206.746 357.725 206.488 357.633 206.271 357.45C206.054 357.25 205.946 356.958 205.946 356.575V354.4L210.071 353.8L211.246 346.425C211.329 346.142 211.471 345.917 211.671 345.75C211.871 345.567 212.138 345.475 212.471 345.475H215.221V353.85H222.296V357.725H215.221V372.2C215.221 373.117 215.446 373.817 215.896 374.3C216.346 374.783 216.946 375.025 217.696 375.025C218.113 375.025 218.471 374.975 218.771 374.875C219.071 374.758 219.329 374.642 219.546 374.525C219.763 374.392 219.946 374.275 220.096 374.175C220.263 374.058 220.421 374 220.571 374C220.871 374 221.113 374.167 221.296 374.5L222.896 377.125C222.063 377.858 221.079 378.425 219.946 378.825C218.813 379.208 217.646 379.4 216.446 379.4ZM243.063 363.375C243.063 362.475 242.929 361.642 242.663 360.875C242.413 360.092 242.038 359.417 241.538 358.85C241.038 358.267 240.413 357.817 239.663 357.5C238.929 357.167 238.079 357 237.113 357C235.163 357 233.629 357.558 232.513 358.675C231.396 359.792 230.688 361.358 230.388 363.375H243.063ZM230.238 366.675C230.304 368.125 230.529 369.383 230.913 370.45C231.296 371.5 231.804 372.375 232.438 373.075C233.088 373.775 233.854 374.3 234.738 374.65C235.638 374.983 236.638 375.15 237.738 375.15C238.788 375.15 239.696 375.033 240.463 374.8C241.229 374.55 241.896 374.283 242.463 374C243.029 373.7 243.513 373.433 243.913 373.2C244.313 372.95 244.679 372.825 245.013 372.825C245.446 372.825 245.779 372.992 246.013 373.325L247.538 375.3C246.904 376.05 246.188 376.683 245.388 377.2C244.588 377.717 243.738 378.142 242.838 378.475C241.938 378.792 241.013 379.017 240.063 379.15C239.113 379.3 238.188 379.375 237.288 379.375C235.521 379.375 233.879 379.083 232.363 378.5C230.863 377.9 229.554 377.025 228.438 375.875C227.338 374.725 226.471 373.3 225.838 371.6C225.221 369.9 224.913 367.942 224.913 365.725C224.913 363.958 225.188 362.308 225.738 360.775C226.304 359.242 227.104 357.908 228.138 356.775C229.188 355.642 230.454 354.75 231.938 354.1C233.438 353.433 235.129 353.1 237.013 353.1C238.579 353.1 240.029 353.358 241.363 353.875C242.696 354.375 243.846 355.117 244.813 356.1C245.779 357.083 246.529 358.292 247.063 359.725C247.613 361.142 247.888 362.758 247.888 364.575C247.888 365.408 247.796 365.967 247.613 366.25C247.429 366.533 247.096 366.675 246.613 366.675H230.238Z" fill="#F8D4CE"/>
<path d="M118.64 403.8L115.37 414H113.66C113.46 414 113.32 413.87 113.24 413.61L111.21 407.26C111.157 407.08 111.107 406.9 111.06 406.72C111.02 406.54 110.983 406.363 110.95 406.19C110.877 406.55 110.787 406.91 110.68 407.27L108.62 413.61C108.547 413.87 108.39 414 108.15 414H106.52L103.25 403.8H104.95C105.117 403.8 105.253 403.843 105.36 403.93C105.473 404.01 105.547 404.107 105.58 404.22L107.28 410.16C107.347 410.433 107.403 410.7 107.45 410.96C107.503 411.213 107.55 411.467 107.59 411.72C107.657 411.467 107.727 411.213 107.8 410.96C107.873 410.7 107.95 410.433 108.03 410.16L109.94 404.19C109.973 404.07 110.04 403.973 110.14 403.9C110.247 403.82 110.373 403.78 110.52 403.78H111.46C111.613 403.78 111.743 403.82 111.85 403.9C111.957 403.973 112.027 404.07 112.06 404.19L113.92 410.16C114 410.433 114.073 410.7 114.14 410.96C114.213 411.22 114.28 411.48 114.34 411.74C114.387 411.487 114.437 411.23 114.49 410.97C114.543 410.71 114.607 410.44 114.68 410.16L116.41 404.22C116.45 404.1 116.523 404 116.63 403.92C116.737 403.84 116.867 403.8 117.02 403.8H118.64ZM122.448 403.8V414H120.298V403.8H122.448ZM122.808 400.72C122.808 400.913 122.768 401.097 122.688 401.27C122.615 401.443 122.512 401.597 122.378 401.73C122.245 401.857 122.088 401.96 121.908 402.04C121.735 402.113 121.548 402.15 121.348 402.15C121.155 402.15 120.972 402.113 120.798 402.04C120.632 401.96 120.485 401.857 120.358 401.73C120.232 401.597 120.128 401.443 120.048 401.27C119.975 401.097 119.938 400.913 119.938 400.72C119.938 400.52 119.975 400.333 120.048 400.16C120.128 399.987 120.232 399.837 120.358 399.71C120.485 399.577 120.632 399.473 120.798 399.4C120.972 399.32 121.155 399.28 121.348 399.28C121.548 399.28 121.735 399.32 121.908 399.4C122.088 399.473 122.245 399.577 122.378 399.71C122.512 399.837 122.615 399.987 122.688 400.16C122.768 400.333 122.808 400.52 122.808 400.72ZM128.42 414.16C127.573 414.16 126.92 413.923 126.46 413.45C126.007 412.97 125.78 412.297 125.78 411.43V405.49H124.66C124.54 405.49 124.437 405.453 124.35 405.38C124.263 405.3 124.22 405.183 124.22 405.03V404.16L125.87 403.92L126.34 400.97C126.373 400.857 126.43 400.767 126.51 400.7C126.59 400.627 126.697 400.59 126.83 400.59H127.93V403.94H130.76V405.49H127.93V411.28C127.93 411.647 128.02 411.927 128.2 412.12C128.38 412.313 128.62 412.41 128.92 412.41C129.087 412.41 129.23 412.39 129.35 412.35C129.47 412.303 129.573 412.257 129.66 412.21C129.747 412.157 129.82 412.11 129.88 412.07C129.947 412.023 130.01 412 130.07 412C130.19 412 130.287 412.067 130.36 412.2L131 413.25C130.667 413.543 130.273 413.77 129.82 413.93C129.367 414.083 128.9 414.16 128.42 414.16ZM134.605 405.01C135.025 404.597 135.485 404.267 135.985 404.02C136.485 403.767 137.068 403.64 137.735 403.64C138.295 403.64 138.785 403.733 139.205 403.92C139.631 404.107 139.988 404.37 140.275 404.71C140.568 405.05 140.788 405.46 140.935 405.94C141.081 406.413 141.155 406.937 141.155 407.51V414H139.015V407.51C139.015 406.823 138.855 406.29 138.535 405.91C138.221 405.53 137.741 405.34 137.095 405.34C136.615 405.34 136.168 405.45 135.755 405.67C135.348 405.89 134.965 406.19 134.605 406.57V414H132.455V399.2H134.605V405.01ZM151.916 414.16C151.069 414.16 150.416 413.923 149.956 413.45C149.503 412.97 149.276 412.297 149.276 411.43V405.49H148.156C148.036 405.49 147.933 405.453 147.846 405.38C147.759 405.3 147.716 405.183 147.716 405.03V404.16L149.366 403.92L149.836 400.97C149.869 400.857 149.926 400.767 150.006 400.7C150.086 400.627 150.193 400.59 150.326 400.59H151.426V403.94H154.256V405.49H151.426V411.28C151.426 411.647 151.516 411.927 151.696 412.12C151.876 412.313 152.116 412.41 152.416 412.41C152.583 412.41 152.726 412.39 152.846 412.35C152.966 412.303 153.069 412.257 153.156 412.21C153.243 412.157 153.316 412.11 153.376 412.07C153.443 412.023 153.506 412 153.566 412C153.686 412 153.783 412.067 153.856 412.2L154.496 413.25C154.163 413.543 153.769 413.77 153.316 413.93C152.863 414.083 152.396 414.16 151.916 414.16ZM158.101 405.01C158.521 404.597 158.981 404.267 159.481 404.02C159.981 403.767 160.564 403.64 161.231 403.64C161.791 403.64 162.281 403.733 162.701 403.92C163.127 404.107 163.484 404.37 163.771 404.71C164.064 405.05 164.284 405.46 164.431 405.94C164.577 406.413 164.651 406.937 164.651 407.51V414H162.511V407.51C162.511 406.823 162.351 406.29 162.031 405.91C161.717 405.53 161.237 405.34 160.591 405.34C160.111 405.34 159.664 405.45 159.251 405.67C158.844 405.89 158.461 406.19 158.101 406.57V414H155.951V399.2H158.101V405.01ZM173.852 407.75C173.852 407.39 173.798 407.057 173.692 406.75C173.592 406.437 173.442 406.167 173.242 405.94C173.042 405.707 172.792 405.527 172.492 405.4C172.198 405.267 171.858 405.2 171.472 405.2C170.692 405.2 170.078 405.423 169.632 405.87C169.185 406.317 168.902 406.943 168.782 407.75H173.852ZM168.722 409.07C168.748 409.65 168.838 410.153 168.992 410.58C169.145 411 169.348 411.35 169.602 411.63C169.862 411.91 170.168 412.12 170.522 412.26C170.882 412.393 171.282 412.46 171.722 412.46C172.142 412.46 172.505 412.413 172.812 412.32C173.118 412.22 173.385 412.113 173.612 412C173.838 411.88 174.032 411.773 174.192 411.68C174.352 411.58 174.498 411.53 174.632 411.53C174.805 411.53 174.938 411.597 175.032 411.73L175.642 412.52C175.388 412.82 175.102 413.073 174.782 413.28C174.462 413.487 174.122 413.657 173.762 413.79C173.402 413.917 173.032 414.007 172.652 414.06C172.272 414.12 171.902 414.15 171.542 414.15C170.835 414.15 170.178 414.033 169.572 413.8C168.972 413.56 168.448 413.21 168.002 412.75C167.562 412.29 167.215 411.72 166.962 411.04C166.715 410.36 166.592 409.577 166.592 408.69C166.592 407.983 166.702 407.323 166.922 406.71C167.148 406.097 167.468 405.563 167.882 405.11C168.302 404.657 168.808 404.3 169.402 404.04C170.002 403.773 170.678 403.64 171.432 403.64C172.058 403.64 172.638 403.743 173.172 403.95C173.705 404.15 174.165 404.447 174.552 404.84C174.938 405.233 175.238 405.717 175.452 406.29C175.672 406.857 175.782 407.503 175.782 408.23C175.782 408.563 175.745 408.787 175.672 408.9C175.598 409.013 175.465 409.07 175.272 409.07H168.722ZM184.777 405.15C184.997 404.923 185.224 404.72 185.457 404.54C185.697 404.353 185.95 404.193 186.217 404.06C186.484 403.927 186.767 403.823 187.067 403.75C187.367 403.677 187.694 403.64 188.047 403.64C188.607 403.64 189.097 403.733 189.517 403.92C189.944 404.107 190.3 404.37 190.587 404.71C190.88 405.05 191.1 405.46 191.247 405.94C191.394 406.413 191.467 406.937 191.467 407.51V414H189.327V407.51C189.327 406.823 189.167 406.29 188.847 405.91C188.534 405.53 188.054 405.34 187.407 405.34C186.927 405.34 186.48 405.45 186.067 405.67C185.66 405.89 185.277 406.19 184.917 406.57V414H182.767V403.8H184.067C184.36 403.8 184.547 403.937 184.627 404.21L184.777 405.15ZM200.668 407.75C200.668 407.39 200.615 407.057 200.508 406.75C200.408 406.437 200.258 406.167 200.058 405.94C199.858 405.707 199.608 405.527 199.308 405.4C199.015 405.267 198.675 405.2 198.288 405.2C197.508 405.2 196.895 405.423 196.448 405.87C196.001 406.317 195.718 406.943 195.598 407.75H200.668ZM195.538 409.07C195.565 409.65 195.655 410.153 195.808 410.58C195.961 411 196.165 411.35 196.418 411.63C196.678 411.91 196.985 412.12 197.338 412.26C197.698 412.393 198.098 412.46 198.538 412.46C198.958 412.46 199.321 412.413 199.628 412.32C199.935 412.22 200.201 412.113 200.428 412C200.655 411.88 200.848 411.773 201.008 411.68C201.168 411.58 201.315 411.53 201.448 411.53C201.621 411.53 201.755 411.597 201.848 411.73L202.458 412.52C202.205 412.82 201.918 413.073 201.598 413.28C201.278 413.487 200.938 413.657 200.578 413.79C200.218 413.917 199.848 414.007 199.468 414.06C199.088 414.12 198.718 414.15 198.358 414.15C197.651 414.15 196.995 414.033 196.388 413.8C195.788 413.56 195.265 413.21 194.818 412.75C194.378 412.29 194.031 411.72 193.778 411.04C193.531 410.36 193.408 409.577 193.408 408.69C193.408 407.983 193.518 407.323 193.738 406.71C193.965 406.097 194.285 405.563 194.698 405.11C195.118 404.657 195.625 404.3 196.218 404.04C196.818 403.773 197.495 403.64 198.248 403.64C198.875 403.64 199.455 403.743 199.988 403.95C200.521 404.15 200.981 404.447 201.368 404.84C201.755 405.233 202.055 405.717 202.268 406.29C202.488 406.857 202.598 407.503 202.598 408.23C202.598 408.563 202.561 408.787 202.488 408.9C202.415 409.013 202.281 409.07 202.088 409.07H195.538ZM218.816 403.8L215.546 414H213.836C213.636 414 213.496 413.87 213.416 413.61L211.386 407.26C211.332 407.08 211.282 406.9 211.236 406.72C211.196 406.54 211.159 406.363 211.126 406.19C211.052 406.55 210.962 406.91 210.856 407.27L208.796 413.61C208.722 413.87 208.566 414 208.326 414H206.696L203.426 403.8H205.126C205.292 403.8 205.429 403.843 205.536 403.93C205.649 404.01 205.722 404.107 205.756 404.22L207.456 410.16C207.522 410.433 207.579 410.7 207.626 410.96C207.679 411.213 207.726 411.467 207.766 411.72C207.832 411.467 207.902 411.213 207.976 410.96C208.049 410.7 208.126 410.433 208.206 410.16L210.116 404.19C210.149 404.07 210.216 403.973 210.316 403.9C210.422 403.82 210.549 403.78 210.696 403.78H211.636C211.789 403.78 211.919 403.82 212.026 403.9C212.132 403.973 212.202 404.07 212.236 404.19L214.096 410.16C214.176 410.433 214.249 410.7 214.316 410.96C214.389 411.22 214.456 411.48 214.516 411.74C214.562 411.487 214.612 411.23 214.666 410.97C214.719 410.71 214.782 410.44 214.856 410.16L216.586 404.22C216.626 404.1 216.699 404 216.806 403.92C216.912 403.84 217.042 403.8 217.196 403.8H218.816ZM231.465 406.31C231.165 405.923 230.835 405.653 230.475 405.5C230.115 405.347 229.725 405.27 229.305 405.27C228.465 405.27 227.808 405.58 227.335 406.2C226.861 406.813 226.625 407.723 226.625 408.93C226.625 409.557 226.678 410.093 226.785 410.54C226.891 410.98 227.045 411.34 227.245 411.62C227.445 411.9 227.688 412.103 227.975 412.23C228.261 412.357 228.585 412.42 228.945 412.42C229.491 412.42 229.961 412.303 230.355 412.07C230.755 411.83 231.125 411.493 231.465 411.06V406.31ZM233.615 399.2V414H232.315C232.028 414 231.845 413.863 231.765 413.59L231.575 412.48C231.148 412.98 230.661 413.383 230.115 413.69C229.575 413.997 228.945 414.15 228.225 414.15C227.651 414.15 227.131 414.037 226.665 413.81C226.198 413.577 225.798 413.24 225.465 412.8C225.131 412.36 224.871 411.817 224.685 411.17C224.505 410.517 224.415 409.77 224.415 408.93C224.415 408.17 224.515 407.467 224.715 406.82C224.921 406.173 225.215 405.613 225.595 405.14C225.975 404.66 226.435 404.287 226.975 404.02C227.521 403.747 228.131 403.61 228.805 403.61C229.405 403.61 229.915 403.707 230.335 403.9C230.755 404.087 231.131 404.35 231.465 404.69V399.2H233.615ZM241.694 409.54C240.927 409.567 240.28 409.63 239.754 409.73C239.227 409.823 238.8 409.947 238.474 410.1C238.147 410.247 237.91 410.423 237.764 410.63C237.624 410.837 237.554 411.063 237.554 411.31C237.554 411.55 237.59 411.757 237.664 411.93C237.744 412.097 237.85 412.237 237.984 412.35C238.124 412.457 238.284 412.537 238.464 412.59C238.65 412.637 238.854 412.66 239.074 412.66C239.634 412.66 240.114 412.557 240.514 412.35C240.92 412.137 241.314 411.83 241.694 411.43V409.54ZM235.994 405.22C237.147 404.147 238.52 403.61 240.114 403.61C240.7 403.61 241.22 403.707 241.674 403.9C242.134 404.087 242.517 404.353 242.824 404.7C243.137 405.047 243.374 405.46 243.534 405.94C243.7 406.413 243.784 406.94 243.784 407.52V414H242.824C242.617 414 242.46 413.97 242.354 413.91C242.247 413.843 242.157 413.713 242.084 413.52L241.874 412.69C241.614 412.923 241.357 413.133 241.104 413.32C240.85 413.5 240.587 413.653 240.314 413.78C240.047 413.907 239.757 414 239.444 414.06C239.137 414.127 238.797 414.16 238.424 414.16C238.01 414.16 237.624 414.103 237.264 413.99C236.91 413.877 236.604 413.707 236.344 413.48C236.084 413.247 235.877 412.96 235.724 412.62C235.577 412.28 235.504 411.88 235.504 411.42C235.504 411.027 235.607 410.643 235.814 410.27C236.027 409.897 236.374 409.563 236.854 409.27C237.34 408.97 237.977 408.723 238.764 408.53C239.557 408.337 240.534 408.227 241.694 408.2V407.52C241.694 406.787 241.537 406.24 241.224 405.88C240.91 405.52 240.45 405.34 239.844 405.34C239.43 405.34 239.084 405.393 238.804 405.5C238.524 405.6 238.28 405.71 238.074 405.83C237.867 405.95 237.684 406.063 237.524 406.17C237.364 406.27 237.194 406.32 237.014 406.32C236.867 406.32 236.74 406.283 236.634 406.21C236.534 406.13 236.45 406.033 236.384 405.92L235.994 405.22ZM255.079 403.8L249.459 416.9C249.385 417.053 249.295 417.173 249.189 417.26C249.089 417.347 248.932 417.39 248.719 417.39H247.129L249.009 413.31L244.849 403.8H246.719C246.899 403.8 247.035 403.843 247.129 403.93C247.229 404.01 247.302 404.107 247.349 404.22L249.779 410.01C249.839 410.177 249.892 410.343 249.939 410.51C249.992 410.67 250.042 410.837 250.089 411.01C250.142 410.837 250.195 410.667 250.249 410.5C250.302 410.333 250.362 410.167 250.429 410L252.759 404.22C252.805 404.1 252.882 404 252.989 403.92C253.102 403.84 253.225 403.8 253.359 403.8H255.079Z" fill="#F4C2BA"/>
</g>
<defs>
<linearGradient id="paint0_linear_1079_1215" x1="372.5" y1="86" x2="-33.5" y2="862.5" gradientUnits="userSpaceOnUse">
<stop stop-color="#FD9D8E" stop-opacity="0.81"/>
<stop offset="1" stop-color="#C02E17" stop-opacity="0.4"/>
</linearGradient>
<clipPath id="clip0_1079_1215">
<rect width="360" height="800" fill="white"/>
</clipPath>
</defs>
</svg>
